<?xml version="1.0" encoding="UTF-8" standalone="no"?>
<svg
   xmlns:dc="http://purl.org/dc/elements/1.1/"
   xmlns:cc="http://creativecommons.org/ns#"
   xmlns:rdf="http://www.w3.org/1999/02/22-rdf-syntax-ns#"
   xmlns:svg="http://www.w3.org/2000/svg"
   xmlns="http://www.w3.org/2000/svg"
   viewBox="0 0 341.73749 277.7225"
   height="20"
   width="24"
   xml:space="preserve"
   version="1.1"
   id="svg3407"><metadata
     id="metadata3413"><rdf:RDF><cc:Work
         rdf:about=""><dc:format>image/svg+xml</dc:format><dc:type
           rdf:resource="http://purl.org/dc/dcmitype/StillImage" /><dc:title></dc:title></cc:Work></rdf:RDF></metadata><defs
     id="defs3411"><clipPath
       id="clipPath3421"
       clipPathUnits="userSpaceOnUse"><path
         id="path3423"
         d="m 0,0 273.36,0 0,222.12 L 0,222.12 0,0 Z" /></clipPath></defs><g
     transform="matrix(1.25,0,0,-1.25,0,277.7225)"
     id="g3415"><g
       id="g3417"><g
         clip-path="url(#clipPath3421)"
         id="g3419"><g
           transform="translate(85.979,0)"
           id="g3425"><path
             id="path3427"
             style="fill:#333333;fill-opacity:1;fill-rule:nonzero;stroke:none"
             d="m 0,0 c -31.675,0 -61.157,9.285 -85.979,25.199 4.387,-0.518 8.852,-0.783 13.379,-0.783 26.279,0 50.463,8.967 69.66,24.01 -24.544,0.453 -45.258,16.669 -52.396,38.953 3.425,-0.655 6.939,-1.006 10.553,-1.006 5.115,0 10.07,0.685 14.777,1.967 -25.659,5.152 -44.993,27.822 -44.993,54.998 0,0.236 10e-4,0.471 0.005,0.705 7.562,-4.201 16.211,-6.724 25.405,-7.015 -15.05,10.058 -24.952,27.226 -24.952,46.685 0,10.279 2.766,19.914 7.594,28.198 27.664,-33.934 68.993,-56.264 115.609,-58.603 -0.957,4.105 -1.453,8.386 -1.453,12.782 0,30.975 25.114,56.088 56.091,56.088 16.131,0 30.709,-6.812 40.941,-17.713 12.776,2.516 24.78,7.184 35.617,13.611 -4.189,-13.097 -13.082,-24.089 -24.662,-31.031 11.345,1.356 22.155,4.371 32.215,8.832 -7.521,-11.248 -17.031,-21.127 -27.989,-29.035 0.108,-2.405 0.162,-4.824 0.162,-7.256 C 159.584,85.467 103.169,0 0,0" /></g></g></g></g></svg>