<?xml version="1.0" encoding="UTF-8" standalone="no"?>
<svg
   xmlns:dc="http://purl.org/dc/elements/1.1/"
   xmlns:cc="http://creativecommons.org/ns#"
   xmlns:rdf="http://www.w3.org/1999/02/22-rdf-syntax-ns#"
   xmlns:svg="http://www.w3.org/2000/svg"
   xmlns="http://www.w3.org/2000/svg"
   viewBox="0 0 341.73749 277.7225"
   height="20"
   width="24"
   xml:space="preserve"
   version="1.1"
   id="svg3371"><metadata
     id="metadata3377"><rdf:RDF><cc:Work
         rdf:about=""><dc:format>image/svg+xml</dc:format><dc:type
           rdf:resource="http://purl.org/dc/dcmitype/StillImage" /><dc:title></dc:title></cc:Work></rdf:RDF></metadata><defs
     id="defs3375"><clipPath
       id="clipPath3385"
       clipPathUnits="userSpaceOnUse"><path
         id="path3387"
         d="m 0,0 273.36,0 0,222.12 L 0,222.12 0,0 Z" /></clipPath></defs><g
     transform="matrix(1.25,0,0,-1.25,0,277.7225)"
     id="g3379"><g
       id="g3381"><g
         clip-path="url(#clipPath3385)"
         id="g3383"><g
           transform="translate(0,44.5889)"
           id="g3389"><path
             id="path3391"
             style="fill:#333333;fill-opacity:1;fill-rule:nonzero;stroke:none"
             d="m 0,0 c 0,-8.284 6.716,-15 15,-15 l 243.36,0 c 8.284,0 15,6.716 15,15 l 0,138 c 0,8.284 -6.716,15 -15,15 L 15,153 C 6.716,153 0,146.284 0,138 L 0,0 Z" /></g><g
           transform="translate(136.6802,84.2734)"
           id="g3393"><path
             id="path3395"
             style="fill:none;stroke:#ffffff;stroke-width:12;stroke-linecap:butt;stroke-linejoin:miter;stroke-miterlimit:4;stroke-dasharray:none;stroke-opacity:1"
             d="M 0,0 -185.262,151.631 0,303.262 185.262,151.631 0,0 Z" /></g></g></g></g></svg>